<svg xmlns="http://www.w3.org/2000/svg" xmlns:xlink="http://www.w3.org/1999/xlink" width="174" height="88" viewBox="0 0 174 88"><defs><clipPath id="a"><rect width="174" height="88" transform="translate(796 401)" fill="#fff" stroke="#707070" stroke-width="1"/></clipPath><radialGradient id="b" cx="0.5" cy="0.5" r="0.75" gradientTransform="translate(0.156) scale(0.687 1)" gradientUnits="objectBoundingBox"><stop offset="0" stop-color="#efdcb1"/><stop offset="0" stop-color="#f2e0bb"/><stop offset="0.011" stop-color="#f2e0bc"/><stop offset="0.362" stop-color="#f9edd2"/><stop offset="0.699" stop-color="#fef4df"/><stop offset="1" stop-color="#fff7e4"/></radialGradient><linearGradient id="c" x1="0.5" y1="1" x2="0.5" gradientUnits="objectBoundingBox"><stop offset="0" stop-color="#41bfec"/><stop offset="0.232" stop-color="#4cc5ef"/><stop offset="0.644" stop-color="#6bd4f6"/><stop offset="1" stop-color="#8ae4fd"/></linearGradient><linearGradient id="d" x1="0.06" y1="0.94" x2="0.574" y2="0.426" gradientUnits="objectBoundingBox"><stop offset="0" stop-color="#c6effd"/><stop offset="0.375" stop-color="#b7ecfd"/><stop offset="1" stop-color="#95e6fd"/></linearGradient><linearGradient id="e" x1="0.5" y1="1.014" x2="0.5" y2="0.014" gradientUnits="objectBoundingBox"><stop offset="0" stop-color="#42c6ee"/><stop offset="0.48" stop-color="#3bc3ed"/><stop offset="1" stop-color="#2ebeea"/></linearGradient><linearGradient id="f" x1="0.5" y1="1" x2="0.5" gradientUnits="objectBoundingBox"><stop offset="0" stop-color="#81dcf7"/><stop offset="0.48" stop-color="#8ce1f9"/><stop offset="1" stop-color="#9ee8fd"/></linearGradient><linearGradient id="g" x1="0.5" x2="0.5" y2="1" gradientUnits="objectBoundingBox"><stop offset="0" stop-color="#47c3ee"/><stop offset="0.98" stop-color="#32b5e8"/><stop offset="1" stop-color="#32b5e8"/></linearGradient></defs><g transform="translate(-796 -401)" clip-path="url(#a)"><g transform="translate(827.104 401)"><path d="M96.5,90.865a4.924,4.924,0,0,0,4.406,2.251,5.133,5.133,0,0,1,5.224,5.514,5.345,5.345,0,0,1-5.457,4.628H83.528v1.69H12.181A5.139,5.139,0,0,1,6.967,99.6a5.363,5.363,0,0,1,5.509-4.8h1.444a3.416,3.416,0,0,0,3.433-3.948,3.589,3.589,0,0,0-3.62-2.813H5.22A5.139,5.139,0,0,1,.007,82.7a5.363,5.363,0,0,1,5.509-4.8H16.531a4.289,4.289,0,0,0,4.35-4.226h0a4.289,4.289,0,0,0-4.35-4.226h0a4.289,4.289,0,0,1-4.35-4.226h0A4.289,4.289,0,0,1,16.531,61H31.323V49.17H18.272a6,6,0,0,1-6.082-6.234c.172-3.2,3.129-5.6,6.426-5.6H31.323V30.577h67a6,6,0,0,1,6.082,6.234c-.172,3.2-3.129,5.6-6.426,5.6H93.1a6,6,0,0,0-6.082,6.234c.172,3.2,3.129,5.6,6.426,5.6H97.45a5.128,5.128,0,0,1,5.182,5.689A5.4,5.4,0,0,1,97.3,64.383a3.407,3.407,0,0,0-3.261,4.067A3.569,3.569,0,0,0,97.6,71.143h7.676a6,6,0,0,1,6.082,6.234c-.172,3.2-3.129,5.6-6.426,5.6H100.93A5.139,5.139,0,0,0,96.5,90.865ZM4.35,69.453h0A4.289,4.289,0,0,0,8.7,65.227h0A4.289,4.289,0,0,0,4.35,61h0A4.289,4.289,0,0,0,0,65.227H0A4.289,4.289,0,0,0,4.35,69.453Zm0,0h0A4.289,4.289,0,0,0,8.7,65.227h0A4.289,4.289,0,0,0,4.35,61h0A4.289,4.289,0,0,0,0,65.227H0A4.289,4.289,0,0,0,4.35,69.453Z" transform="translate(0.001 -23.816)" fill="url(#b)"/><path d="M104.136,106.239H44.971a5.147,5.147,0,0,1-5.221-5.071V23.417a5.147,5.147,0,0,1,5.221-5.071H81.091a5.293,5.293,0,0,1,3.691,1.486l23.045,22.384a4.992,4.992,0,0,1,1.53,3.585v55.367A5.147,5.147,0,0,1,104.136,106.239Z" transform="translate(-17.127 -18.346)" fill="url(#c)"/><path d="M140.765,42.6,117.72,20.213a5.25,5.25,0,0,0-1.528-1.014V39.011a5.147,5.147,0,0,0,5.221,5.071h20.4A5.023,5.023,0,0,0,140.765,42.6Z" transform="translate(-50.065 -18.728)" fill="url(#d)"/><path d="M121.413,60.109a5.147,5.147,0,0,1-5.221-5.071v5.071a5.147,5.147,0,0,0,5.221,5.071h20.882V62.21a4.94,4.94,0,0,0-.486-2.1Z" transform="translate(-50.065 -34.756)" fill="url(#e)"/><path d="M54.541,43.7H39.75V23.417a5.147,5.147,0,0,1,5.221-5.071H61.5a4.289,4.289,0,0,1,4.35,4.226h0A4.289,4.289,0,0,1,61.5,26.8H52.8a4.289,4.289,0,0,0-4.35,4.226h0a4.289,4.289,0,0,0,4.35,4.226h1.74a4.289,4.289,0,0,1,4.35,4.226h0A4.289,4.289,0,0,1,54.541,43.7Zm13.051-6.761a3.382,3.382,0,1,0,3.48,3.38A3.431,3.431,0,0,0,67.593,36.939Z" transform="translate(-17.127 -18.346)" fill="url(#f)"/><path d="M116.093,125.365h15.662v23.663a5.147,5.147,0,0,1-5.221,5.071H96.951a5.147,5.147,0,0,1-5.221-5.071h0a5.147,5.147,0,0,1,5.221-5.071h20.012a4.289,4.289,0,0,0,4.35-4.226h0a4.289,4.289,0,0,0-4.35-4.226h-.87a5.147,5.147,0,0,1-5.221-5.071h0A5.147,5.147,0,0,1,116.093,125.365Zm-13.921,0a5.073,5.073,0,1,0,5.221,5.071A5.147,5.147,0,0,0,102.172,125.365Z" transform="translate(-39.525 -66.207)" fill="url(#g)"/></g></g></svg>